<svg width="498" height="367" viewBox="0 0 498 367" fill="none" xmlns="http://www.w3.org/2000/svg">
<path d="M173.581 490.587C81.3601 490.587 6.5985 415.721 6.5985 323.367C6.59851 231.014 81.3601 156.147 173.581 156.147C265.802 156.147 340.564 231.014 340.564 323.367C340.564 415.721 265.802 490.587 173.581 490.587Z" stroke="#6246E5" stroke-width="1.33012"/>
<path d="M191.228 497.215C88.0428 497.215 4.39269 413.448 4.39269 310.114C4.3927 206.78 88.0428 123.013 191.228 123.013C294.414 123.013 378.064 206.78 378.064 310.114C378.064 413.448 294.414 497.215 191.228 497.215Z" stroke="#6246E5" stroke-width="1.33012"/>
<path d="M205.567 503.841C92.6347 503.841 1.0837 412.162 1.0837 299.068C1.08371 185.974 92.6347 94.2949 205.567 94.2949C318.498 94.2949 410.049 185.974 410.049 299.068C410.049 412.162 318.498 503.841 205.567 503.841Z" stroke="#6246E5" stroke-width="1.33012"/>
<path d="M226.523 508.26C105.063 508.26 6.59905 409.657 6.59905 288.023C6.59906 166.389 105.063 67.7871 226.523 67.7871C347.983 67.7871 446.447 166.389 446.447 288.023C446.447 409.657 347.983 508.26 226.523 508.26Z" stroke="#6246E5" stroke-width="1.33012"/>
<path d="M246.927 512.678C117.244 512.678 12.1135 407.4 12.1135 277.531C12.1135 147.662 117.244 42.3838 246.927 42.3838C376.611 42.3838 481.741 147.662 481.741 277.531C481.741 407.4 376.611 512.678 246.927 512.678Z" stroke="#6246E5" stroke-width="1.33012"/>
<path d="M270.089 518.2C127.614 518.2 12.1134 402.537 12.1134 259.858C12.1134 117.179 127.614 1.51661 270.089 1.51661C412.564 1.51662 528.065 117.179 528.065 259.858C528.065 402.538 412.564 518.2 270.089 518.2Z" stroke="#6246E5" stroke-width="1.33012"/>
</svg>
